# xmcd
# 
# Track frame offsets:
#     150
#     29600
#     61437
#     83979
#     114397
#     141370
#     167400
#     198034
# 
# Disc length: 3100
# 
# Revision: 1
# Processed by: cddbd v1.5.2PL0 Copyright (c) Steve Scherf et al.
# Submitted via: BonkEnc v1.0.8
# 
DISCID=670c1a08
DTITLE=Ove Ingemarsson - Heart Of The Matter
DYEAR=1995
DGENRE=Contemporary Jazz
TTITLE0=Heart Of The Matter
TTITLE1=Third Star
TTITLE2=Grafenast Hotel
TTITLE3=Alma
TTITLE4=The Masquerade Is Over
TTITLE5=Hotel Trianon
TTITLE6=Seems Like Yesterday
TTITLE7=Union Mystica
EXTD=YEAR: 1995
EXTT0=
EXTT1=
EXTT2=
EXTT3=
EXTT4=
EXTT5=
EXTT6=
EXTT7=
PLAYORDER=
